<?xml version="1.0" encoding="utf-8"?>
<!-- Generator: Adobe Illustrator 17.1.0, SVG Export Plug-In . SVG Version: 6.00 Build 0)  -->
<!DOCTYPE svg PUBLIC "-//W3C//DTD SVG 1.1//EN" "http://www.w3.org/Graphics/SVG/1.1/DTD/svg11.dtd">
<svg version="1.1" id="Layer_1" xmlns="http://www.w3.org/2000/svg" xmlns:xlink="http://www.w3.org/1999/xlink" x="0px" y="0px"
	 viewBox="0 0 62 59" enable-background="new 0 0 62 59" xml:space="preserve">
<path fill="none" stroke="#000000" stroke-miterlimit="10" d="M2.6,28.4c0,15.7,12.8,28.5,28.5,28.5s28.5-12.8,28.5-28.5
	C59.6,14.2,48,2.7,33.8,2.7S8.1,14.2,8.1,28.4c0,12.7,10.3,23,23,23s23-10.3,23-23c0-11.2-9.1-20.3-20.3-20.3s-20.3,9.1-20.3,20.3
	c0,9.7,7.8,17.5,17.5,17.5s17.5-7.8,17.5-17.5c0-8.2-6.6-14.8-14.8-14.8S19,20.3,19,28.4c0,6.6,5.4,12,12,12s12-5.4,12-12
	c0-5.1-4.2-9.3-9.3-9.3s-9.3,4.2-9.3,9.3c0,3.6,2.9,6.5,6.5,6.5s6.5-2.9,6.5-6.5c0-2.1-1.7-3.8-3.8-3.8S30,26.4,30,28.4"/>
</svg>
