<?xml version="1.0" encoding="utf-8"?>
<!-- Generator: Adobe Illustrator 17.1.0, SVG Export Plug-In . SVG Version: 6.00 Build 0)  -->
<!DOCTYPE svg PUBLIC "-//W3C//DTD SVG 1.1//EN" "http://www.w3.org/Graphics/SVG/1.1/DTD/svg11.dtd">
<svg version="1.1" id="Layer_1" xmlns="http://www.w3.org/2000/svg" xmlns:xlink="http://www.w3.org/1999/xlink" x="0px" y="0px"
	 viewBox="48 535.7 518.2 75.3" enable-background="new 48 535.7 518.2 75.3" xml:space="preserve">
<path fill="#696969" d="M0,536.8C0,537.8,0,537.8,0,536.8c0,39.6,136.7,70.3,306,70.3s306-31.7,306-69.3c0,0,388.2-65.4,0-1
	S0,536.8,0,536.8z"/>
<path fill="#C9C9C9" d="M0,536.8C0,536.8,0,537.8,0,536.8c0,27.7,136.7,49.5,306,49.5s306-21.8,306-48.5c0,0,388.2-45.6,0-1
	C223.8,582.3,0,536.8,0,536.8z"/>
</svg>
